<svg width="77" height="189" viewBox="0 0 77 189" fill="none" xmlns="http://www.w3.org/2000/svg">
<path d="M71.4103 150.318C71.4103 157.964 68.7348 163.694 63.9312 166.476C57.9266 169.957 48.9729 168.771 39.396 163.238C20.4245 152.279 4.97982 128.019 4.97982 109.155V39.5972C4.97982 31.9361 7.64014 26.1751 12.459 23.3934C18.4788 19.9277 27.4172 21.0981 36.9941 26.6311C55.9656 37.5907 71.4103 61.8507 71.4103 80.7146L76.1988 83.7243C76.67 60.6347 59.6899 34.1858 39.396 22.4662C28.2989 16.0515 17.6123 14.8811 10.0724 19.2284C3.70295 22.907 0.191406 30.1424 0.191406 39.5972V109.14C0.191406 129.539 16.7001 155.668 36.9941 167.373C43.6828 171.234 50.2194 173.195 56.0112 173.195C59.8267 173.195 63.3231 172.343 66.3178 170.611C72.0488 167.297 75.4387 161.095 76.0619 152.993L71.3951 150.303L71.4103 150.318Z" fill="black"/>
</svg>
