<svg width="1512" height="515" viewBox="0 0 1512 515" fill="none" xmlns="http://www.w3.org/2000/svg">
<path d="M995.522 255.039C986.833 255.039 977.027 252.098 966.993 246.305C936.548 228.724 911.781 189.524 911.781 158.944V54.6162C911.781 40.4322 917.049 29.5775 926.605 24.059C937.916 17.5371 953.948 19.293 970.596 28.9162C1001.04 46.498 1025.81 85.6978 1025.81 116.278V220.605C1025.81 234.789 1020.54 245.644 1010.98 251.163C1006.49 253.762 1001.25 255.039 995.522 255.039ZM970.596 240.08C984.963 248.381 998.373 250.136 1007.4 244.937C1014.63 240.764 1018.62 232.121 1018.62 220.628V116.301C1018.62 88.001 995.477 51.5833 966.993 35.1645C952.626 26.8639 939.216 25.108 930.185 30.3073C922.956 34.4804 918.965 43.123 918.965 54.6162V158.944C918.965 187.243 942.112 223.661 970.596 240.08Z" fill="white"/>
<path d="M305.207 224.733L298.023 220.606V6.22656L303.36 9.21387C303.816 9.46471 348.514 34.3893 364.432 44.4686C389.541 60.3401 414.969 93.5881 414.969 126.403C414.969 141.567 410.225 152.331 401.217 157.53C393.76 161.817 379.894 164.075 356.154 150.37L305.207 120.953V224.756V224.733ZM305.207 112.629L359.757 144.121C375.972 153.471 389.427 156.025 397.637 151.282C406.029 146.447 407.785 135.068 407.785 126.38C407.785 99.7224 387.945 67.8198 360.601 50.5345C348.104 42.6443 317.59 25.4274 305.207 18.4722V112.629Z" fill="white"/>
<path d="M1252.24 0H1245.05V211.164H1252.24V0Z" fill="white"/>
<path d="M67.0724 253.421C57.4485 253.421 45.6126 249.476 32.0891 241.677C-2.43809 221.724 -21.4577 194.952 -24.4224 162.114L-16.9194 163.186C-14.4109 192.512 2.82993 216.456 35.6923 235.429C54.005 246.01 68.76 248.929 77.2207 243.638C85.8183 238.256 86.8217 225.372 86.1376 215.498C83.6062 178.898 56.7416 156.162 30.7436 134.157C5.42973 112.744 -20.7279 90.6014 -24.4224 55.8483C-26.5661 35.6213 -22.7348 22.1898 -13.0653 15.896C-2.39248 8.96361 14.0273 11.7685 35.6695 24.2878C77.3347 48.3459 87.0042 80.9098 89.2163 93.794L81.5081 92.8134C78.5662 80.7273 71.1089 53.0435 32.0663 30.5133C13.2063 19.6358 -1.04697 16.6485 -9.16565 21.939C-16.3037 26.5682 -19.1087 38.0385 -17.2843 55.0958C-13.8863 86.9984 10.0364 107.248 35.3502 128.684C62.4657 151.647 90.5162 175.386 93.2528 215.019C94.7352 236.478 87.3919 245.736 80.9836 249.75C77.0611 252.19 72.386 253.421 67.0268 253.421H67.0724Z" fill="white"/>
<path d="M607.912 114.324L604.32 120.545L663.965 154.979L667.557 148.758L607.912 114.324Z" fill="white"/>
<path d="M241.193 23.6724V177.279C241.193 205.579 217.202 242.475 187.715 259.487C172.458 268.289 158.319 270.25 148.9 264.823C141.648 260.65 137.84 252.441 137.84 241.107V82.552L130.656 86.7023V241.084C130.656 254.926 135.856 265.576 145.32 271.026C149.904 273.671 155.286 274.994 161.17 274.994C170.292 274.994 180.645 271.87 191.318 265.713C222.79 247.538 248.377 207.882 248.377 177.279V19.5449L241.193 23.6952V23.6724Z" fill="white"/>
<path d="M822.378 271.41V67.2012H815.172V275.56L822.378 271.41Z" fill="white"/>
<path d="M1411.3 225.509C1411.3 236.979 1407.29 245.576 1400.08 249.749C1391.08 254.971 1377.64 253.192 1363.28 244.892C1334.81 228.45 1311.64 192.055 1311.64 163.756V59.4052C1311.64 47.9121 1315.64 39.2694 1322.86 35.0963C1331.9 29.897 1345.31 31.6529 1359.67 39.9535C1388.13 56.3951 1411.3 92.7901 1411.3 121.09L1418.49 125.605C1419.19 90.9658 1393.72 51.2871 1363.28 33.7053C1346.63 24.0821 1330.6 22.3262 1319.28 28.8481C1309.73 34.3666 1304.46 45.2212 1304.46 59.4052V163.733C1304.46 194.336 1329.23 233.535 1359.67 251.094C1369.71 256.887 1379.51 259.828 1388.2 259.828C1393.93 259.828 1399.17 258.551 1403.66 255.952C1412.26 250.98 1417.35 241.676 1418.28 229.522L1411.28 225.486L1411.3 225.509Z" fill="white"/>
<path d="M547.396 222.318L463.313 270.868V176.437L530.337 137.739V129.461L530.314 129.438L463.313 168.136V73.6827L547.373 25.1789V16.8555L456.129 69.5324V283.319L547.418 230.619V222.364L547.396 222.318Z" fill="white"/>
<path d="M700.331 152.879C692.189 157.577 680.216 156.049 667.491 148.706L658.893 143.758L707.081 275.154L716.682 280.695H716.75L672.143 159.014C684.162 163.916 695.428 164.008 703.911 159.105C713.238 153.723 718.392 142.823 718.392 128.456C718.392 95.5505 693.193 61.778 668.312 45.4504C652.394 35.0062 608.996 10.4237 607.148 9.37471L601.789 6.3418V216.776L608.79 220.812H608.973V18.7015C621.379 25.7707 651.915 43.3068 664.367 51.4706C691.072 68.984 711.209 102.095 711.209 128.456C711.209 140.155 707.355 148.82 700.331 152.879Z" fill="white"/>
<path d="M871.756 32.3848L756.727 98.7896L756.749 107.067L871.756 40.6854V32.3848Z" fill="white"/>
<path d="M1081.1 280.421V82.5979L1181.29 222.591L1187.95 218.76V5.42969L1180.74 9.51158V209.479L1079.58 68.1403L1073.9 71.4012V284.594L1081.1 280.421Z" fill="white"/>
<path d="M294.663 437.379C287.342 437.379 283.716 436.649 276.099 435.578L273.203 428.668C306.088 433.32 337.126 427.3 356.26 412.591C367.48 403.972 374.253 392.752 376.443 379.252L279.292 323.155L279.338 314.945L384.196 375.421L383.923 377.77C381.939 394.303 374.116 407.939 360.661 418.292C344.538 430.675 320.843 437.379 294.663 437.379Z" fill="white"/>
<path d="M407.436 514.572C389.169 482.601 349.328 422.946 348.918 422.331L354.893 418.34C355.303 418.956 395.053 478.724 413.457 510.924L407.413 514.572H407.436Z" fill="white"/>
<path d="M444.133 458.177V449.762L561.694 381.875L561.671 390.176L444.133 458.177Z" fill="white"/>
<path d="M791.523 458.177V449.762L909.085 381.875L909.062 390.176L791.523 458.177Z" fill="white"/>
<path d="M972.004 500.592L964.82 496.419V343.564L972.004 347.738V500.592Z" fill="white"/>
<path d="M1042.09 481.281C1031.82 467.94 994.262 424.932 966.531 402.493L971.047 396.906C999.234 419.71 1036.13 461.897 1046.55 475.443L1042.09 481.303V481.281Z" fill="white"/>
<path d="M1107.78 404.745L1107.76 396.444L1221.99 330.473L1221.97 338.796L1107.78 404.745Z" fill="white"/>
<path d="M1092.48 505.309L1092.46 496.963L1237.46 413.25L1237.43 421.596L1092.48 505.309Z" fill="white"/>
<path d="M1301.59 413.734C1297.89 401.488 1290.55 381.101 1284.5 366.324L1291.16 363.588C1297.27 378.547 1304.73 399.207 1308.47 411.636L1301.59 413.711V413.734Z" fill="white"/>
<path d="M1332.44 422.877C1328.07 410.403 1321.7 392.799 1316.32 379.709L1322.98 376.973C1328.45 390.222 1334.84 407.963 1339.24 420.505L1332.44 422.9V422.877Z" fill="white"/>
<path d="M1324.41 472.361C1318.35 472.361 1311.99 471.722 1305.28 470.445L1306.63 463.376C1329.91 467.846 1370.82 467.481 1383.12 414.986L1390.12 416.628C1381.66 452.75 1358.14 472.361 1324.39 472.361H1324.41Z" fill="white"/>
<path d="M1430.39 443.128L1426.31 436.492C1460.58 394.305 1472.42 361.33 1479.44 334.764L1486.35 336.725C1479.15 364.021 1465.53 399.869 1430.39 443.105V443.128Z" fill="white"/>
<path d="M1440.9 509.897L1438.21 502.326C1498.07 447.301 1532.05 379.186 1539.92 335.585L1472.92 374.26L1469.32 368.034L1549 322.039L1548.16 329.177C1542.86 373.462 1505.53 450.47 1440.88 509.92L1440.9 509.897Z" fill="white"/>
<path d="M600.485 422.126L595.445 416.996C613.074 399.619 635.902 350.385 640.349 329.816L647.373 331.344C642.652 353.19 619.277 403.61 600.485 422.126Z" fill="white"/>
<path d="M738.299 504.426C727.581 459.89 696.885 377.386 684.137 347.49L690.75 344.662C703.59 374.74 734.468 457.815 745.3 502.738L738.299 504.426Z" fill="white"/>
<path d="M752.21 388.49L726.828 373.85V348.492L752.21 363.132V388.49Z" fill="white"/>
</svg>
