<svg width="77" height="189" viewBox="0 0 77 189" fill="none" xmlns="http://www.w3.org/2000/svg">
<path d="M56.2534 170.003C50.4617 170.003 43.925 168.042 37.2364 164.181C16.9424 152.462 0.433594 126.332 0.433594 105.948V36.4057C0.433594 26.951 3.94513 19.7156 10.3146 16.037C17.8545 11.6897 28.5411 12.8601 39.6382 19.2748C59.9322 30.9944 76.441 57.1241 76.441 77.508V147.05C76.441 156.505 72.9294 163.741 66.56 167.419C63.5653 169.152 60.069 170.003 56.2534 170.003ZM39.6382 160.032C49.2151 165.565 58.1536 166.735 64.1734 163.269C68.9923 160.488 71.6525 154.727 71.6525 147.066V77.5232C71.6525 58.6593 56.223 34.3841 37.2364 23.4397C27.6595 17.9067 18.721 16.7363 12.7012 20.202C7.88233 22.9837 5.2221 28.7447 5.2221 36.4057V105.948C5.2221 124.812 20.6516 149.087 39.6382 160.032Z" fill="black"/>
</svg>
