<svg width="79" height="189" viewBox="0 0 79 189" fill="none" xmlns="http://www.w3.org/2000/svg">
<path d="M5.10486 149.801L0.316406 147.05V4.14941L3.87355 6.14068C4.17757 6.30789 33.9725 22.9221 44.5831 29.6407C61.3199 40.2203 78.2696 62.3826 78.2696 84.2562C78.2696 94.3646 75.1077 101.539 69.1031 105.005C64.1322 107.863 54.8897 109.367 39.065 100.232L5.10486 80.6233V149.816V149.801ZM5.10486 75.0751L41.4668 96.067C52.2751 102.299 61.2439 104.002 66.7165 100.84C72.3106 97.6175 73.4811 90.0324 73.4811 84.241C73.4811 66.4716 60.2558 45.206 42.0293 33.684C33.6988 28.4247 13.3593 16.9483 5.10486 12.3121V75.0751Z" fill="black"/>
</svg>
