<svg width="621" height="77" viewBox="0 0 621 77" fill="none" xmlns="http://www.w3.org/2000/svg">
<path d="M576.489 76.5901C565.579 76.5901 556.691 67.7169 556.691 56.7939V22.3333C556.691 11.4246 565.565 2.53711 576.489 2.53711C587.413 2.53711 596.286 11.4103 596.286 22.3333V56.7939C596.286 67.7026 587.413 76.5901 576.489 76.5901ZM576.489 6.85186C567.945 6.85186 560.992 13.8042 560.992 22.3476V56.8082C560.992 65.3517 567.945 72.304 576.489 72.304C585.033 72.304 591.986 65.3517 591.986 56.8082V22.3476C591.986 13.8042 585.033 6.85186 576.489 6.85186Z" fill="#231F20"/>
<path d="M371.59 74.9418H367.289V4.04254L369.396 3.99949C369.998 3.99949 384.363 3.7128 389.681 3.99949C400.218 4.57288 407.859 12.5287 407.859 22.8926C407.859 33.2566 399.616 42.1154 389.48 42.1154H371.59V74.9418ZM371.59 37.815H389.48C397.365 37.815 403.558 31.2641 403.558 22.8926C403.558 13.8188 396.462 8.68693 389.452 8.29989C385.481 8.08487 375.876 8.19957 371.604 8.27124V37.815H371.59Z" fill="#231F20"/>
<path d="M426.668 3.99902H422.367V74.97H426.668V3.99902Z" fill="#231F20"/>
<path d="M535.331 74.9847L504.351 13.7469V74.9273H500.051V4.01367L504.122 4.02802L535.345 65.4091V4.08537H539.646V74.9847H535.331Z" fill="#231F20"/>
<path d="M482.147 74.9133H486.649L465.69 3.94238H461.562L440.617 74.899H445.104L452.817 48.7526H474.42L482.133 74.9133H482.147ZM454.093 44.4665L463.626 12.1561L473.159 44.4665H454.093Z" fill="#231F20"/>
<path d="M150.022 9.05957H116.82V19.0361H139.642V47.7207H152.674V52.0215H139.642V66.4844C139.642 69.8097 139.011 71.587 137.262 73.2354C135.197 75.1848 131.972 75.1277 127.112 75.0703C126.209 75.0703 125.249 75.042 124.245 75.042V70.7412C125.277 70.7412 126.252 70.7409 127.17 70.7695C130.438 70.8125 133.52 70.8563 134.323 70.0967C134.925 69.5377 135.355 69.1359 135.355 66.4844V52.0215H94.3701V75.3857H90.0547V52.0215H76.9531V47.7207H90.0547V19.0361H112.52V9.05957H79.4336V4.75879H150.022V9.05957ZM116.82 47.7207H135.355V37.4707H116.82V47.7207ZM94.3701 47.7207H112.52V37.4707H94.3701V47.7207ZM94.3701 33.1699H112.52V23.3369H94.3701V33.1699ZM116.82 33.1699H135.355V23.3369H116.82V33.1699Z" fill="#231F20"/>
<path d="M226.23 27.623V36.6387H239.146V40.9395H226.23V51.418H241.509V55.7188H226.23V75.3428H221.93V55.7188H204.996V51.418H221.93V40.9395H211.943C210.317 43.645 208.474 46.1464 206.444 48.3799L203.262 45.498C207.347 40.9826 210.76 34.9908 212.853 28.6406L216.938 29.9883C216.182 32.2826 215.284 34.5072 214.26 36.6387H221.93V27.623H226.23ZM168.625 75.2568H168.611C168.613 75.2546 168.614 75.2522 168.616 75.25L168.625 75.2568ZM183.006 1.53418C182.319 3.34333 181.551 5.11767 180.71 6.85156H197.312L196.138 9.80469C195.416 11.6148 193.404 15.4352 190.459 19.624H201.727V67C201.727 69.9386 201.21 71.4723 199.676 73.0635C197.655 75.1705 194.903 75.1419 190.717 75.1133H188.724V70.8135H190.745C194.185 70.8421 195.863 70.8133 196.565 70.0967C197.11 69.5233 197.411 69.2075 197.411 67V51.332H176.794C176.112 61.6076 173.555 68.9685 168.616 75.25L165.242 72.5908C168.926 67.9177 172.696 61.008 172.696 45.2686V19.624H185.113C187.501 16.5325 189.422 13.4605 190.69 11.1523H178.426C175.442 16.295 171.783 20.9829 167.595 25L164.613 21.8887C170.749 16.0115 175.853 8.24236 178.992 0L183.006 1.53418ZM176.983 45.2686C176.983 45.8649 176.977 46.4524 176.967 47.0312H185.172V37.5713H176.983V45.2686ZM189.473 47.0312H197.411V37.5713H189.473V47.0312ZM176.983 33.2705H185.172V23.9248H176.983V33.2705ZM189.473 33.2705H197.411V23.9248H189.473V33.2705ZM238.242 5.18945C238.099 10.7226 237.224 20.4981 233.01 23.8525C230.63 25.7447 226.372 25.8164 222.157 25.8164H221.054V21.5166H221.599C224.752 21.5309 229.038 21.5162 230.343 20.4844C231.834 19.2946 233.425 14.8077 233.855 7.28223H221.731C219.218 15.3099 215.469 21.5965 205.829 27.6514H205.814L203.535 24.0107C211.585 18.9543 214.937 13.8971 217.204 7.28223H204.453V2.98145H238.3L238.242 5.18945Z" fill="#231F20"/>
<path d="M289.475 5.25977C285.416 6.46169 280.87 7.42989 276.332 8.18652V30.002H290.063V34.3027H276.332V37.041C280.016 41.7855 285.406 47.3754 290.423 51.6611L287.628 54.9297C283.793 51.6531 279.742 47.6241 276.332 43.7559V75.3711H272.031V41.0117C268.078 47.6348 262.28 55.9126 256.777 62.126L253.566 59.2734C260.19 51.8037 267.455 40.8968 270.868 34.3027H256.805V30.002H272.031V8.84082C266.44 9.61927 261.103 10.0814 256.976 10.2627L256.789 5.96289C265.691 5.56152 278.866 3.91276 288.256 1.13184L289.475 5.25977ZM326.003 31.6357H311.432C313.528 49.7946 319.297 60.9751 331.638 71.0713L328.914 74.3965H328.899C315.651 63.5525 309.271 51.0872 307.099 31.6357H298.68V32.3379C298.68 56.334 292.114 66.2395 284.788 75.084V75.0703L281.477 72.332C288.53 63.8172 294.379 54.915 294.379 32.3379V4.55762H326.003V31.6357ZM262.543 12.7998C264.435 16.6701 266.915 23.1635 267.789 26.1738L263.66 27.3779C262.843 24.5969 260.435 18.3046 258.672 14.6924L262.543 12.7998ZM298.68 27.3213H321.702V8.84375H298.68V27.3213ZM289.062 12.5996C287.872 17.0862 286.137 21.9744 283.872 27.1348L279.93 25.4004C282.094 20.455 283.772 15.7821 284.904 11.4961L289.062 12.5996Z" fill="#231F20"/>
</svg>
