<svg width="79" height="189" viewBox="0 0 79 189" fill="none" xmlns="http://www.w3.org/2000/svg">
<path d="M3.57227 6.24805C4.80359 6.94727 33.7321 23.3341 44.3428 30.2959C60.9274 41.1795 77.7254 63.6909 77.7256 85.625C77.7256 95.2013 74.2896 102.467 68.0723 106.055C62.4173 109.323 54.9077 109.262 46.8965 105.994L76.6309 187.104H76.585L70.1855 183.41L40.6348 102.835L4.78809 82.1396V147.188H4.66699L0 144.497V4.22656L3.57227 6.24805ZM4.78809 76.6113L39.8379 96.8447L43.7959 99.123C52.2782 104.018 60.2587 105.037 65.6855 101.905C70.3676 99.1996 72.9365 93.4229 72.9365 85.625C72.9363 68.0533 59.5136 45.9825 41.7129 34.3086C33.4129 28.8668 13.0577 17.177 4.78809 12.4648V76.6113Z" fill="black"/>
</svg>
