<svg width="621" height="75" viewBox="0 0 621 75" fill="none" xmlns="http://www.w3.org/2000/svg">
<path d="M159.555 72.5479H155.512L134.539 15.0372V72.4189H130.238V1.47656L134.41 1.49091L157.533 65.4809L180.642 1.49091L184.828 1.47656V72.4189H180.527V15.0372L159.555 72.5479Z" fill="#231F20"/>
<path d="M88.1634 5.76232V1.46191H56.4531V72.5476H88.1634V68.2472H60.7538V39.6925H82.5152V35.3921H60.7538V5.76232H88.1634Z" fill="#231F20"/>
<path d="M108.262 1.49121H103.961V72.4192H108.262V1.49121Z" fill="#231F20"/>
<path d="M321.473 1.57715H317.172V72.4191H321.473V1.57715Z" fill="#231F20"/>
<path d="M378.2 72.5335L347.207 11.2814V72.4762H342.906V1.5625H346.978L378.2 62.9579V1.61985H382.501V72.5335H378.2Z" fill="#231F20"/>
<path d="M462.208 72.5335L431.215 11.2814V72.4762H426.914V1.5625H430.985L462.208 62.9579V1.61985H466.509V72.5335H462.208Z" fill="#231F20"/>
<path d="M406.801 1.64844H402.5V72.4187H406.801V1.64844Z" fill="#231F20"/>
<path d="M242.53 72.5765H247.031L226.073 1.60547H221.944L201 72.5621H205.487L213.2 46.4157H234.803L242.516 72.5765H242.53ZM214.475 42.1153L224.009 9.80491L233.542 42.1153H214.475Z" fill="#231F20"/>
<path d="M278.282 74.0676C267.372 74.0676 258.484 65.1944 258.484 54.2714V19.8108C258.484 8.90214 267.358 0.0146484 278.282 0.0146484C289.205 0.0146484 298.079 8.88781 298.079 19.8108H293.779C293.779 11.2674 286.826 4.31505 278.282 4.31505C269.738 4.31505 262.785 11.2674 262.785 19.8108V54.2714C262.785 62.8149 269.738 69.7672 278.282 69.7672C286.826 69.7672 293.779 62.8149 293.779 54.2714V46.373H278.282V42.0726H298.079V54.2714C298.079 65.1801 289.205 74.0676 278.282 74.0676Z" fill="#231F20"/>
<path d="M503.106 74.0529C492.197 74.0529 483.309 65.1798 483.309 54.2568V19.7962C483.309 8.8875 492.182 0 503.106 0C514.03 0 522.903 8.87316 522.903 19.7962H518.603C518.603 11.2527 511.65 4.3004 503.106 4.3004C494.562 4.3004 487.609 11.2527 487.609 19.7962V54.2568C487.609 62.8002 494.562 69.7525 503.106 69.7525C511.65 69.7525 518.603 62.8002 518.603 54.2568V46.3583H503.106V42.0579H522.903V54.2568C522.903 65.1655 514.03 74.0529 503.106 74.0529Z" fill="#231F20"/>
<path d="M40.4407 21.0429C40.4407 10.8366 32.7137 2.5225 22.4495 1.71976C17.131 1.28972 2.72373 1.4617 2.12164 1.4617L0 1.4904V72.5761H4.30067V40.2944H20.7006L35.7242 72.5474L40.4693 72.5761L25.3023 39.979C33.8893 38.3735 40.4407 30.4894 40.4407 21.0429ZM18.6936 35.9796H4.28632V5.73345C8.57266 5.70478 18.1488 5.6761 22.1054 5.99146C29.0725 6.53618 36.1257 11.883 36.1257 21.0286C36.1257 29.4 29.947 35.951 22.0481 35.951H18.6793L18.6936 35.9796Z" fill="#231F20"/>
</svg>
