<svg width="79" height="189" viewBox="0 0 79 189" fill="none" xmlns="http://www.w3.org/2000/svg">
<path d="M61.3733 168.924C54.9583 168.924 47.0688 166.294 38.0543 161.095C15.0393 147.795 2.36122 129.95 0.385033 108.061L5.38632 108.775C7.05848 128.323 18.5508 144.284 40.4561 156.931C52.6629 163.984 62.4983 165.929 68.138 162.403C73.869 158.815 74.5378 150.227 74.0818 143.645C72.3944 119.248 54.4871 104.093 37.1574 89.425C20.2838 75.1517 2.84767 60.392 0.385033 37.2264C-1.04391 23.7435 1.50994 14.7904 7.95537 10.595C15.0697 5.97408 26.0147 7.84374 40.4409 16.1888C68.214 32.2254 74.6594 53.9317 76.134 62.52L70.9959 61.8664C69.0349 53.8101 64.064 35.3567 38.0391 20.3386C25.4675 13.0879 15.9665 11.0967 10.5548 14.6232C5.79676 17.7089 3.92698 25.3548 5.14309 36.7247C7.40811 57.9903 23.3545 71.4884 40.2281 85.7769C58.3026 101.084 77.0005 116.908 78.8246 143.326C79.8127 157.63 74.9179 163.801 70.6462 166.476C68.0316 168.103 64.9153 168.924 61.3429 168.924H61.3733Z" fill="black"/>
</svg>
