<svg width="94" height="134" viewBox="0 0 94 134" fill="none" xmlns="http://www.w3.org/2000/svg">
<path d="M89.4756 133.065H89.4609L89.4717 133.059C89.473 133.061 89.4743 133.063 89.4756 133.065ZM73.9854 40.3115L73.8027 41.8779C72.4801 52.898 67.2665 61.9878 58.2979 68.8887C57.4537 69.537 56.5777 70.1614 55.6729 70.7627C61.0442 78.8789 82.7348 111.817 93.4893 130.633L89.4717 133.059C78.7077 114.221 56.7139 80.9741 51.5625 73.2236C41.4151 78.6946 28.4008 81.6113 14.3047 81.6113C9.42505 81.6113 7.00788 81.1255 1.93066 80.4111L0 75.8047C21.9205 78.9056 42.6102 74.8932 55.3643 65.0889C62.8433 59.3431 67.3581 51.8639 68.8174 42.8652L4.05859 5.47266L4.08887 0L73.9854 40.3115Z" fill="#231F20"/>
</svg>
