<svg width="622" height="72" viewBox="0 0 622 72" fill="none" xmlns="http://www.w3.org/2000/svg">
<path d="M205.815 0.015625H167.797V4.31603H205.815V0.015625Z" fill="#231F20"/>
<path d="M188.926 2.16602H184.625V70.9868H188.926V2.16602Z" fill="#231F20"/>
<path d="M251.287 34.4326H222.129V38.733H251.287V34.4326Z" fill="#231F20"/>
<path d="M224.25 0.0576172H219.949V70.9999H224.25V0.0576172Z" fill="#231F20"/>
<path d="M254.297 0.0576172H249.996V70.9999H254.297V0.0576172Z" fill="#231F20"/>
<path d="M303.956 4.3004V0H272.246V71.0857H303.956V66.7853H276.547V38.2449H298.308V33.9445H276.547V4.3004H303.956Z" fill="#231F20"/>
<path d="M364.069 69.3652H364.055C364.057 69.3652 364.059 69.3643 364.061 69.3643C364.063 69.3643 364.067 69.3652 364.069 69.3652ZM346.021 32.6113C361.038 31.1291 378.394 26.6497 388.595 22.9355L390.071 26.9775C379.52 30.8066 361.517 35.4545 346.021 36.9316V43.1035C346.021 49.6974 345.992 57.1659 349.461 61.2656C353.977 66.5981 368.756 65.179 384.396 63.6738C387.378 63.3871 390.433 63.1005 393.515 62.8281L393.873 67.1143C390.805 67.3723 387.765 67.6586 384.798 67.9453C377.088 68.6905 370.051 69.3638 364.061 69.3643C355.879 69.3634 349.617 68.1019 346.178 64.0322C341.705 58.7285 341.705 50.429 341.72 43.0898V3.49707H346.021V32.6113ZM400.068 15.4521H387.195V2.58008H400.068V15.4521Z" fill="#231F20"/>
<path d="M450.182 21.7754C449.551 44.3811 439.931 58.63 419.03 67.9619V67.9766L417.281 64.0488C436.477 55.4767 445.293 42.4034 445.881 21.6611L450.182 21.7754ZM459.801 31.6377H459.786C459.79 31.6359 459.794 31.6336 459.798 31.6318L459.801 31.6377ZM480.042 8.61621C477.104 19.4348 470.485 26.9583 459.798 31.6318L458.08 27.6963C466.696 23.9263 472.158 18.3356 475.054 10.208H420.277V5.90723H480.788L480.042 8.61621Z" fill="#231F20"/>
<path d="M488.645 68.2468L486.523 64.5054C505.647 53.6828 525.373 39.0471 540.139 5.50391L544.081 7.23839C528.813 41.9283 508.414 57.0657 488.659 68.2468H488.645Z" fill="#231F20"/>
<path d="M595.849 67.6592L594.631 63.5309C594.631 63.5309 600.623 61.7247 606.357 57.4959C613.783 52.0201 617.41 45.1825 617.152 37.1694C616.908 29.701 614.399 23.7234 609.712 19.38C605.11 15.1226 598.544 12.6571 591.391 12.4421C591.534 22.2757 589.685 36.2233 586.044 44.4371C582.89 51.5757 579.019 56.0195 574.561 57.6823C571.493 58.8147 568.268 58.5997 564.956 57.0229C561.802 55.5321 559.408 52.6509 558.018 48.7088C555.71 42.1579 556.369 32.8977 559.623 26.1604C564.641 15.7821 576.009 8.71506 588.595 8.15601C597.885 7.7403 606.644 10.6789 612.636 16.2121C618.127 21.2866 621.18 28.4826 621.452 37.026C622.198 59.6318 596.122 67.5733 595.863 67.6449L595.849 67.6592ZM587.076 12.5711C576.74 13.5888 567.594 19.5234 563.479 28.0382C560.727 33.7291 560.125 41.8281 562.06 47.2897C563.078 50.1566 564.669 52.1348 566.791 53.1382C569.042 54.2133 571.092 54.371 573.056 53.6543C576.338 52.4358 579.464 48.6515 582.101 42.7026C585.499 35.0335 587.219 21.903 587.076 12.5854V12.5711Z" fill="#231F20"/>
</svg>
