<svg width="71" height="133" viewBox="0 0 71 133" fill="none" xmlns="http://www.w3.org/2000/svg">
<path d="M26.7148 104.93H26.7002C26.7021 104.93 26.7041 104.929 26.7061 104.929C26.709 104.929 26.7119 104.93 26.7148 104.93ZM70.5107 67.7803C64.8715 91.8555 49.2008 104.926 26.7061 104.929C22.6652 104.928 18.4269 104.504 13.9609 103.653L14.8574 98.9414C30.3781 101.921 57.6502 101.677 65.8438 66.6855L70.5107 67.7803ZM25.7549 41.3457C29.4032 50.1771 33.6599 62.003 36.5938 70.3633L32.0635 71.96V71.9443C29.1448 63.6297 24.9039 51.895 21.3164 43.1699L25.7549 41.3457ZM4.54785 32.4229C8.62182 42.3943 13.5929 56.1659 16.0859 64.4502L11.4951 65.834V65.8486C9.03247 57.686 4.13772 44.0969 0.109375 34.2471L4.54785 32.4229Z" fill="#231F20"/>
</svg>
